<?xml version="1.0" encoding="UTF-8"?>
<svg width="28px" height="29px" viewBox="0 0 28 29" version="1.1" xmlns="http://www.w3.org/2000/svg" xmlns:xlink="http://www.w3.org/1999/xlink">
    <title>icon/28/dete</title>
    <g id="页面-1" stroke="none" stroke-width="1" fill="none" fill-rule="evenodd">
        <g id="CT4-Web端-指标属性" transform="translate(-864.000000, -1026.000000)" fill="currentColor" fill-rule="nonzero">
            <g id="编组-2备份" transform="translate(76.000000, 1012.000000)">
                <g id="5.反馈/模态弹窗/标题" transform="translate(-0.000000, 0.000000)">
                    <g id="编组" transform="translate(788.000000, 14.500000)">
                        <path d="M6.46966991,6.46966991 C6.76256313,6.1767767 7.23743687,6.1767767 7.53033009,6.46966991 L14,12.939 L20.4696699,6.46966991 C20.7625631,6.1767767 21.2374369,6.1767767 21.5303301,6.46966991 C21.8232233,6.76256313 21.8232233,7.23743687 21.5303301,7.53033009 L15.061,14 L21.5303301,20.4696699 C21.7965966,20.7359365 21.8208027,21.1526002 21.6029482,21.4462117 L21.5303301,21.5303301 C21.2374369,21.8232233 20.7625631,21.8232233 20.4696699,21.5303301 L14,15.061 L7.53033009,21.5303301 C7.23743687,21.8232233 6.76256313,21.8232233 6.46966991,21.5303301 C6.1767767,21.2374369 6.1767767,20.7625631 6.46966991,20.4696699 L12.939,14 L6.46966991,7.53033009 C6.20340335,7.26406352 6.1791973,6.84739984 6.39705176,6.55378835 Z" id="形状结合"></path>
                    </g>
                </g>
            </g>
        </g>
    </g>
</svg>