<?xml version="1.0" encoding="UTF-8"?>
<svg width="36px" height="37px" viewBox="0 0 36 37" version="1.1" xmlns="http://www.w3.org/2000/svg" xmlns:xlink="http://www.w3.org/1999/xlink">
    <title>icon/tool/36/Dotted line/3/def-1.5px</title>
    <g id="页面-1" stroke="none" stroke-width="1" fill="none" fill-rule="evenodd">
        <g id="工具栏图标汇总-1.5px" transform="translate(-2499.000000, -1312.000000)" fill="currentColor" fill-rule="nonzero">
            <g id="编组-3备份-28" transform="translate(2495.000000, 1310.736000)">
                <g id="编组" transform="translate(4.000000, 2.000000)">
                    <path d="M5,17 L7,17 L7,19 L5,19 Z M9,17 L11,17 L11,19 L9,19 Z M13,17 L15,17 L15,19 L13,19 Z M17,17 L19,17 L19,19 L17,19 Z M21,17 L23,17 L23,19 L21,19 Z M25,17 L27,17 L27,19 L25,19 Z M29,17 L31,17 L31,19 L29,19 Z" id="形状结合"></path>
                </g>
            </g>
        </g>
    </g>
</svg>